<svg width="46" height="36" viewBox="0 0 46 36" fill="none" xmlns="http://www.w3.org/2000/svg">
<path d="M29.2 10V6C29.2 4.93913 28.7786 3.92172 28.0284 3.17157C27.2783 2.42143 26.2609 2 25.2 2H6C4.93913 2 3.92172 2.42143 3.17157 3.17157C2.42143 3.92172 2 4.93913 2 6V30C2 31.0609 2.42143 32.0783 3.17157 32.8284C3.92172 33.5786 4.93913 34 6 34H25.2C26.2609 34 27.2783 33.5786 28.0284 32.8284C28.7786 32.0783 29.2 31.0609 29.2 30V26" stroke="black" stroke-width="3" stroke-linecap="round" stroke-linejoin="round"/>
<path d="M35.6 10L43.6 18L35.6 26" stroke="black" stroke-width="3" stroke-linecap="round" stroke-linejoin="round"/>
<path d="M16.3 18H43.6" stroke="black" stroke-width="3" stroke-linecap="round" stroke-linejoin="round"/>
</svg>
